<?xml version="1.0" encoding="utf-8"?>
<!-- Generator: Adobe Illustrator 19.0.0, SVG Export Plug-In . SVG Version: 6.00 Build 0)  -->
<svg version="1.1" id="Layer_1" xmlns="http://www.w3.org/2000/svg" xmlns:xlink="http://www.w3.org/1999/xlink" x="0px" y="0px"
	 viewBox="-49 220.2 512 353.7" style="enable-background:new -49 220.2 512 353.7;" xml:space="preserve">
<style type="text/css">
	.st0{fill:#5BA948;}
	.st1{fill:#23A24D;}
	.st2{fill:#43B05C;}
</style>
<g>
	<polygon class="st0" points="455.1,280.9 455.1,513.1 344.2,513.1 344.2,397 344.2,280.9 	"/>
	<rect x="207" y="280.9" class="st0" width="137.2" height="116.1"/>
</g>
<rect x="207" y="397" class="st1" width="137.2" height="116.1"/>
<rect x="69.8" y="397" class="st0" width="137.2" height="116.1"/>
<rect x="69.8" y="280.9" class="st1" width="137.2" height="116.1"/>
<polygon class="st0" points="69.8,397 69.8,513.1 -41.1,513.1 -41.1,280.9 69.8,280.9 "/>
<g>
	<polygon class="st1" points="207,513.1 207,565.9 -41.1,565.9 -41.1,513.1 69.8,513.1 	"/>
	<polygon class="st1" points="455.1,228.1 455.1,280.9 344.2,280.9 207,280.9 207,228.1 	"/>
</g>
<g>
	<polygon class="st2" points="455.1,513.1 455.1,565.9 207,565.9 207,513.1 344.2,513.1 	"/>
	<polygon class="st2" points="207,228.1 207,280.9 69.8,280.9 -41.1,280.9 -41.1,228.1 	"/>
</g>
<path d="M-49,220.2v353.7h512V220.2H-49z M447.2,273H214.9V236h232.2L447.2,273L447.2,273z M336.3,389.1H214.9V288.8h121.4V389.1z
	 M199.1,389.1H77.7V288.8h121.4V389.1z M61.8,505.2h-95V288.8h95V505.2z M77.7,404.9h121.4v100.3H77.7V404.9z M214.9,404.9h121.4
	v100.3H214.9V404.9z M352.2,288.8h95v216.4h-95V288.8z M199.1,236V273H-33.2V236H199.1z M-33.2,521h232.2V558H-33.2V521z M214.9,558
	V521h232.2V558H214.9z"/>
</svg>
